<?xml version="1.0" encoding="UTF-8"?><svg id="Layer_1" xmlns="http://www.w3.org/2000/svg" viewBox="0 0 249.69 170.3"><defs><style>.cls-1{fill:#fff;stroke-width:0px;}</style></defs><path class="cls-1" d="M145.65,43.88c-14.25-18.77-34.6-28.05-57.9-28.05-38.45,0-70.79,28.5-70.79,69.89s30.76,69.66,71.69,69.66c22.62,0,41.84-9.27,56.99-26.91l12.89,9.73c-16.74,21.03-41.39,32.11-71.02,32.11C33.25,170.3,0,132.08,0,84.36S37.09,0,87.53,0c29.85,0,54.96,11.76,71.02,34.15l-12.89,9.73Z"/><path class="cls-1" d="M66.72,167.36L89.79,4.98h2.71l66.04,133.21L223.9,4.98h2.71l23.07,162.39h-15.83l-15.83-116.25-57.45,116.25h-4.07l-58.35-117.15-15.61,117.15h-15.83Z"/></svg>